<?xml version="1.0" standalone="no"?>
<!DOCTYPE svg PUBLIC "-//W3C//DTD SVG 20010904//EN"
 "http://www.w3.org/TR/2001/REC-SVG-20010904/DTD/svg10.dtd">
<svg version="1.0" xmlns="http://www.w3.org/2000/svg"
 width="4508.000000pt" height="3000.000000pt" viewBox="0 0 4508.000000 3000.000000"
 preserveAspectRatio="xMidYMid meet">

<g transform="translate(0.000000,3000.000000) scale(0.100000,-0.100000)"
fill="#000000" stroke="none">
<path d="M14805 21339 c-376 -14 -454 -39 -615 -198 -54 -53 -125 -134 -160
-181 -457 -622 -759 -1873 -875 -3630 -35 -545 -40 -722 -40 -1585 0 -988 16
-1408 76 -2010 30 -293 34 -378 20 -404 -18 -33 -33 -15 -70 84 -192 506 -291
1443 -291 2735 0 605 17 1076 56 1570 51 651 174 1422 326 2033 46 184 59 250
50 259 -22 22 -110 27 -462 27 -383 1 -562 -10 -617 -36 -53 -25 -137 -107
-182 -177 -54 -86 -219 -417 -281 -566 -343 -816 -519 -2067 -496 -3540 8
-532 43 -1171 86 -1582 14 -139 13 -198 -5 -198 -22 0 -41 35 -85 158 -100
280 -168 658 -212 1167 -18 204 -18 1231 0 1495 55 839 152 1547 298 2183 27
118 25 141 -9 151 -48 14 -406 19 -552 7 -198 -16 -273 -33 -375 -83 -68 -33
-102 -58 -175 -132 -129 -129 -219 -275 -308 -503 -136 -345 -245 -899 -288
-1469 l-13 -162 -85 -7 c-283 -23 -469 -150 -591 -400 -80 -163 -95 -236 -95
-455 0 -219 15 -292 95 -455 121 -249 313 -379 576 -392 l112 -6 6 -61 c30
-309 41 -409 67 -591 113 -804 296 -1335 531 -1540 56 -49 147 -91 228 -106
41 -7 212 -13 465 -14 418 -3 523 -11 605 -46 92 -41 140 -111 212 -314 70
-196 119 -280 231 -394 191 -196 393 -238 1012 -212 394 17 450 7 546 -96 60
-64 101 -136 262 -463 152 -310 226 -428 340 -547 111 -115 203 -172 317 -194
145 -28 1196 -27 1480 1 315 31 412 81 560 290 374 526 653 1409 829 2620 72
496 98 787 126 1435 30 677 34 755 39 763 3 5 870 12 1928 16 1058 4 1926 10
1930 14 6 6 128 527 128 546 0 61 85 -263 435 -1664 230 -919 419 -1669 421
-1667 2 1 48 187 103 412 55 226 190 781 301 1235 111 454 257 1057 326 1340
69 283 127 523 130 533 9 28 21 19 29 -20 4 -21 132 -562 286 -1203 153 -641
343 -1433 421 -1760 78 -327 145 -599 149 -603 3 -5 30 87 58 205 28 117 177
742 332 1388 154 646 285 1192 290 1213 l10 38 1537 -7 c845 -3 1540 -9 1543
-13 4 -3 14 -188 23 -411 36 -891 52 -1116 112 -1570 181 -1388 499 -2399 921
-2923 121 -150 245 -192 643 -217 223 -15 1054 -14 1228 0 156 12 210 30 309
99 156 110 270 274 460 661 287 584 269 572 826 549 575 -24 782 16 967 188
115 106 186 227 262 443 68 191 126 266 232 299 94 29 171 33 596 36 427 3
480 8 585 60 57 27 158 125 208 200 224 336 389 1008 470 1910 l12 140 90 6
c144 9 244 70 333 204 227 338 222 975 -9 1305 -86 122 -187 181 -335 196
l-63 7 -5 51 c-3 28 -8 85 -11 126 -3 41 -15 156 -26 255 -113 1022 -374 1658
-754 1840 -86 41 -178 61 -360 76 -158 13 -515 7 -557 -10 -37 -14 -36 -31 6
-217 220 -959 341 -2339 296 -3354 -21 -462 -71 -859 -146 -1155 -32 -124 -89
-303 -120 -372 -23 -54 -48 -68 -58 -35 -3 10 3 114 14 232 29 314 57 743 71
1086 13 343 7 1291 -11 1559 -66 1025 -217 1797 -474 2424 -70 170 -259 540
-311 607 -47 60 -108 114 -157 140 -48 25 -270 36 -658 32 -405 -3 -420 -5
-420 -55 0 -14 16 -84 35 -157 132 -505 266 -1275 324 -1876 81 -824 101
-2015 51 -2865 -43 -716 -120 -1230 -237 -1587 -45 -138 -77 -198 -95 -180
-14 14 -12 149 6 312 116 1062 126 2700 25 3975 -142 1791 -484 3001 -996
3519 -133 136 -201 173 -358 196 -225 33 -1392 30 -1569 -4 -116 -23 -191 -62
-281 -147 -574 -545 -963 -1961 -1070 -3889 -21 -383 -39 -879 -32 -886 3 -3
173 -48 377 -99 205 -52 375 -96 378 -99 3 -3 -967 -6 -2155 -6 -1717 0 -2163
-3 -2170 -12 -5 -7 -47 -170 -93 -363 -90 -379 -95 -398 -103 -375 -3 8 -87
357 -187 775 -100 418 -292 1218 -426 1779 -134 560 -244 1025 -244 1032 0 65
-43 -97 -218 -828 -162 -675 -633 -2644 -657 -2747 -4 -13 -10 -20 -14 -15 -5
5 -36 97 -69 204 -82 266 -718 2299 -744 2380 -16 50 -23 60 -28 45 -4 -11
-114 -434 -245 -940 -131 -506 -241 -923 -245 -928 -3 -4 -964 -6 -2136 -5
l-2129 3 378 95 c208 52 382 97 387 100 13 8 -17 718 -51 1210 -64 933 -235
1882 -450 2508 -124 358 -277 669 -426 865 -176 232 -286 312 -478 347 -51 9
-875 32 -1020 28 -27 -1 -140 -5 -250 -9z m864 -694 c-359 -1259 -566 -2507
-651 -3920 -20 -334 -17 -1559 5 -1905 81 -1272 250 -2363 553 -3584 41 -164
72 -301 70 -304 -8 -8 -117 168 -181 293 -606 1188 -897 3600 -720 5970 114
1515 411 2754 829 3448 64 107 145 222 151 215 2 -2 -23 -98 -56 -213z m13988
113 c81 -120 166 -270 224 -394 461 -998 729 -2666 729 -4544 0 -2130 -343
-3958 -907 -4834 -24 -37 -46 -67 -48 -64 -2 2 23 111 56 243 354 1410 543
2725 589 4100 59 1776 -163 3597 -652 5335 -68 242 -72 260 -65 260 3 0 36
-46 74 -102z"/>
</g>
</svg>
